<?xml version="1.0" encoding="utf-8"?>
<svg version="1.1" id="Layer_1" x="0px" y="0px" viewBox="0 0 131.8 149.8" style="enable-background:new 0 0 131.8 149.8;" xmlns="http://www.w3.org/2000/svg">
  <style type="text/css">
	.st0{fill-rule:evenodd;clip-rule:evenodd;fill:#05111C;stroke:url(#SVGID_1_);stroke-width:4.8;}
</style>
  <path class="st0" d="M41.3,132.2L65,147.2c0.4,0.3,0.9,0.3,1.3,0l21.6-13.8l1.3-8l6.5,2c4-3.8,7-6.7,9-8.8c2.5-2.7,4.9-5.6,7.2-8.6 c-0.1-0.5-0.4-1.2-0.7-2.2c-0.8-2.1-2.3-5.1-4.3-9l-1.7-3.2l15.8-1.3l1.7-3.2c4.4-8.3,6.8-17.6,6.8-27.1V22.6c0-0.5-0.3-1-0.9-1.1 l-31.9-9.7L92.1,16l-5.4-7.3L66,2.5c-0.2-0.1-0.5-0.1-0.7,0L44.7,8.8l-4.6,6.4l6.8,10.1l-7.8,17.1l-3-15.5L22.2,15.7L3.6,21.4 c-0.5,0.2-0.8,0.6-0.8,1.1L2.4,61.8C2.3,72.7,5.3,83.4,11,92.7l15.7,25.5c0.2,0.3,0.5,0.5,0.9,0.6l11.6,1L41.3,132.2z M111.9,110.4 C111.9,110.4,111.9,110.4,111.9,110.4C111.9,110.4,111.9,110.4,111.9,110.4L111.9,110.4z M40.6,24.5l0.4,2.3l0.4-1L40.6,24.5z" style="fill: rgb(15, 27, 39); stroke: rgb(251, 192, 45);"/>
</svg>