<?xml version="1.0" encoding="utf-8"?>
<svg version="1.1" id="Layer_1" x="0px" y="0px" viewBox="0 0 131.9 150.1" style="enable-background:new 0 0 131.9 150.1;" xmlns="http://www.w3.org/2000/svg">
  <style type="text/css">
	.st0{fill-rule:evenodd;clip-rule:evenodd;fill:#05111C;stroke:url(#SVGID_1_);stroke-width:4.8;}
</style>
  <path class="st0" d="M3.7,21.4c-0.5,0.2-0.8,0.6-0.8,1.1L2.4,65.7c-0.1,9.8,2.3,19.4,6.9,28c5.2,9.6,11.2,18.1,18.1,25.6 c10.7,11.6,23.3,21,37.7,28.3c0.3,0.2,0.7,0.2,1.1,0c14.7-7.4,27.5-17.1,38.4-28.9c6.8-7.4,12.8-15.8,17.9-25.3 c4.5-8.4,6.9-17.8,6.9-27.3V22.6c0-0.5-0.3-1-0.9-1.1L66,2.5c-0.2-0.1-0.5-0.1-0.7,0L3.7,21.4z" style="stroke: rgb(251, 192, 45); fill: rgb(15, 27, 39);"/>
</svg>