<?xml version="1.0" encoding="utf-8"?>
<svg enable-background="new 0 0 105.5 120.1" viewBox="0 0 105.5 120.1" xmlns="http://www.w3.org/2000/svg">
  <path clip-rule="evenodd" d="m2.9 17.1c-.4.1-.7.5-.7.9l-.3 34.6c-.1 7.8 1.8 15.5 5.5 22.4 4.1 7.7 9 14.5 14.5 20.5 8.6 9.3 18.6 16.8 30.1 22.6.3.1.6.1.9 0 11.7-6 22-13.7 30.7-23.1 5.6-6 10.4-12.7 14.5-20.3 3.6-6.7 5.5-14.2 5.5-21.9v-34.8c0-.4-.3-.8-.7-.9l-50.1-15.1c-.2-.1-.4-.1-.6 0z" fill-rule="evenodd" stroke-width="3.84" style="fill: rgb(15, 27, 39); stroke: rgb(3, 169, 244);"/>
</svg>