<?xml version="1.0" encoding="utf-8"?>
<svg version="1.1" id="Layer_1" x="0px" y="0px" viewBox="0 0 131.8 149.8" style="enable-background:new 0 0 131.8 149.8;" xmlns="http://www.w3.org/2000/svg">
  <style type="text/css">
	.st0{fill-rule:evenodd;clip-rule:evenodd;fill:#05111C;stroke:url(#SVGID_1_);stroke-width:4.8;}
</style>
  <path class="st0" d="M11.2,93l5.7-1.3V81.1l11.1-3.3l-2.7,10.3l1.9,8.4l-9.3,8.6l8.8,13c0.2,0.3,0.5,0.5,0.9,0.5l11.7,1l2,12.5 L65,147.2c0.4,0.3,0.9,0.3,1.3,0l19.4-12.6L85.2,124l-11.1-8l5.6-17.7l3.9,13.1l10.2,6.1l0.2,1c0.9,3.3,1.5,6,2,7.8 c0.9-0.8,2.7-2.4,3-2.6c0.1-0.1,0.1-0.1,0.2-0.2c2.9-2.5,4.6-4,5.4-4.9c2.5-2.7,4.9-5.6,7.2-8.6c-0.1-0.5-0.4-1.2-0.7-2.2 c-0.8-2.1-2.3-5.1-4.3-9l-1.7-3.2l15.8-1.3l1.7-3.2c4.4-8.3,6.8-17.6,6.8-27.1V51.7l-5.4-8.5h-14.4l2.6-3.8c3.4-4.9,6.4-8.1,9.2-9.5 c2.3-1.1,5-1.4,8-0.9v-6.4c0-0.5-0.3-1-0.9-1.1l-31.9-9.7L92.1,16l-5.4-7.3L66,2.5c-0.2-0.1-0.5-0.1-0.7,0L44.8,8.8l-4.6,7.6 l8.6,10.4l-8.9,15.5l-3-13.9L22.2,15.7L3.6,21.4c-0.5,0.2-0.8,0.6-0.8,1.1L2.4,61.8C2.3,72.7,5.3,83.4,11,92.7L11.2,93z M111.9,110.4C111.9,110.4,111.9,110.4,111.9,110.4C111.9,110.4,111.9,110.4,111.9,110.4L111.9,110.4z M89.8,121.4 c-0.1-0.3-0.1-0.5-0.2-0.8l-5.3-3.2L89.8,121.4z M21.7,95.1l0.2-0.2L21.7,94L21.7,95.1z" style="stroke: rgb(251, 192, 45); fill: rgb(15, 27, 39);"/>
</svg>